<svg width="220" height="152" viewBox="0 0 220 152" fill="none" xmlns="http://www.w3.org/2000/svg">
<g clip-path="url(#clip0_2_7)">
<path d="M194.561 88.4378C201.918 91.5526 209.719 86.8273 220 95.2836C219.994 95.2784 216.107 97.5613 214.611 100.95C218.915 106.458 219.222 112.481 219.23 112.473C219.242 112.467 211.853 110.316 204.881 111.051C194.486 112.118 186.805 110.643 185.159 107.731C180.847 100.09 186.044 86.7319 186.101 86.7358C188.925 87.2695 191.745 87.8371 194.561 88.4378Z" fill="#D2838A"/>
<path d="M186.101 86.7358C188.925 87.2699 191.745 87.8375 194.561 88.4382C196.744 89.3461 198.923 89.588 201.194 89.6843C201.113 91.4142 200.991 96.0024 201.761 99.5589C202.747 104.043 204.273 109.162 197.728 108.954C194.874 108.878 192.75 109.676 194.049 111.192C189.374 110.73 186.143 109.491 185.16 107.731C180.847 100.089 186.044 86.7315 186.101 86.7358Z" fill="#BB6C74"/>
<path d="M25.4388 88.4378C18.0821 91.5526 10.2798 86.8264 0 95.2836C0.00515625 95.2784 3.89297 97.5609 5.38871 100.95C1.08496 106.457 0.776016 112.479 0.769141 112.473C0.75668 112.467 8.14559 110.315 15.1181 111.05C25.514 112.118 33.1959 110.643 34.8399 107.731C39.1518 100.089 33.9556 86.7315 33.8989 86.7354C31.075 87.2695 28.2545 87.8371 25.4388 88.4378Z" fill="#D2838A"/>
<path d="M33.8989 86.7358C31.075 87.2699 28.2541 87.8375 25.4388 88.4382C23.2552 89.3461 21.0762 89.588 18.8049 89.6843C18.8865 91.4142 19.009 96.0024 18.2386 99.5589C17.2533 104.043 15.7266 109.162 22.2716 108.954C25.126 108.878 27.2487 109.676 25.951 111.192C30.6256 110.73 33.8564 109.491 34.84 107.731C39.1519 100.089 33.9557 86.7315 33.8989 86.7358Z" fill="#BB6C74"/>
<path d="M36.1316 95.559C36.3773 96.6749 38.1137 103.439 34.8399 107.731C36.8251 104.616 33.7949 102.788 31.2082 103.887C27.5602 105.445 25.9806 107.457 22.822 107.716C18.6295 108.082 18.3 102.023 20.5171 99.8215C22.7154 97.5416 36.1341 95.4855 36.1316 95.559Z" fill="#A75860"/>
<path d="M183.868 95.559C183.622 96.6749 181.886 103.438 185.159 107.731C183.175 104.615 186.203 102.788 188.792 103.887C192.44 105.444 194.019 107.457 197.177 107.716C201.37 108.081 201.699 102.024 199.483 99.8215C197.284 97.5416 183.866 95.4855 183.868 95.559Z" fill="#A75860"/>
<path d="M201.475 102.057C200.442 98.5221 199.583 88.0296 200.692 83.4427C201.839 78.8454 193.148 78.6173 187.74 77.5203C187.072 77.6234 177.187 75.0981 162.695 73.107C148.201 71.0286 129.101 69.4843 110 69.5281C90.8991 69.4843 71.7978 71.0286 57.3044 73.107C42.8115 75.0973 32.9265 77.623 32.2588 77.5203C26.8511 78.619 18.1594 78.8459 19.308 83.4427C20.4157 88.0287 19.5568 98.5238 18.5242 102.057C17.4655 105.6 19.0265 108.153 22.822 107.716C22.822 107.716 20.3298 107.817 19.6595 105.284C18.9857 102.748 21.9931 101.14 25.2153 100.359C25.5372 100.596 36.2158 97.3886 52.0725 94.85C67.9301 92.1984 88.965 90.2154 110 90.2725C131.035 90.2154 152.07 92.198 167.927 94.85C183.785 97.3886 194.463 100.596 194.785 100.359C198.006 101.14 201.015 102.748 200.341 105.284C199.67 107.818 197.177 107.713 197.177 107.713C200.974 108.153 202.534 105.6 201.475 102.057Z" fill="#DF9098"/>
<path d="M22.5126 80.1714C21.3151 80.623 20.4153 81.5151 20.7457 82.1063C21.0577 82.701 22.0838 95.8744 20.8351 98.55C19.562 101.233 20.5245 101.49 21.4393 100.92C22.3549 100.346 24.6155 99.4532 24.6164 99.4545C24.6164 99.4545 22.4941 99.4739 22.1594 99.5607C21.8247 99.6449 22.1044 97.2202 22.2462 96.3449C22.3657 95.4726 22.1156 84.7919 21.6004 82.57C21.0641 80.3485 23.1554 80.5199 23.1537 80.5225C22.9406 80.4056 22.727 80.2887 22.5126 80.1714Z" fill="#FFB8C0"/>
<path d="M197.486 80.1714C198.683 80.6222 199.583 81.5151 199.253 82.1063C198.941 82.701 197.915 95.8735 199.164 98.55C200.438 101.233 199.474 101.49 198.56 100.92C197.643 100.346 195.383 99.4532 195.383 99.4532C195.383 99.4532 197.505 99.4743 197.839 99.5607C198.175 99.6449 197.894 97.2202 197.752 96.3449C197.634 95.4722 197.882 84.7906 198.397 82.57C198.935 80.3485 196.844 80.5199 196.844 80.5225C197.059 80.4056 197.273 80.2887 197.486 80.1714Z" fill="#FFB8C0"/>
<path d="M49.87 140.927C49.642 140.927 49.4773 140.788 49.376 140.509L49.034 139.236H41.244C41.0413 139.236 40.8957 139.179 40.807 139.065C40.731 138.938 40.693 138.805 40.693 138.666C40.693 138.501 40.7373 138.368 40.826 138.267C40.9273 138.166 41.0667 138.115 41.244 138.115H48.73L47.856 134.809H40.902C40.6993 134.809 40.5537 134.752 40.465 134.638C40.389 134.511 40.351 134.378 40.351 134.239C40.351 134.074 40.4017 133.941 40.503 133.84C40.6043 133.739 40.7373 133.688 40.902 133.688H47.571L47.286 132.605C47.2733 132.567 47.2607 132.535 47.248 132.51C47.248 132.472 47.248 132.44 47.248 132.415C47.248 132.276 47.305 132.155 47.419 132.054C47.533 131.953 47.6787 131.902 47.856 131.902C47.97 131.902 48.0777 131.94 48.179 132.016C48.2803 132.079 48.3437 132.181 48.369 132.32L48.73 133.688H52.15C52.3527 133.688 52.492 133.745 52.568 133.859C52.6567 133.973 52.701 134.1 52.701 134.239C52.701 134.404 52.6503 134.543 52.549 134.657C52.4603 134.758 52.3273 134.809 52.15 134.809H49.015L49.889 138.115H51.998C52.2007 138.115 52.34 138.172 52.416 138.286C52.5047 138.4 52.549 138.527 52.549 138.666C52.549 138.831 52.4983 138.97 52.397 139.084C52.3083 139.185 52.1753 139.236 51.998 139.236H50.193L50.44 140.224C50.4907 140.465 50.4463 140.642 50.307 140.756C50.1677 140.87 50.022 140.927 49.87 140.927ZM48.141 147.596C47.381 147.748 46.583 147.824 45.747 147.824C44.911 147.824 44.0877 147.735 43.277 147.558C42.4663 147.393 41.738 147.134 41.092 146.779C40.3067 146.348 39.724 145.804 39.344 145.145C38.9767 144.474 38.793 143.745 38.793 142.96C38.793 142.58 38.831 142.194 38.907 141.801C38.9957 141.408 39.116 141.016 39.268 140.623C39.344 140.408 39.4897 140.3 39.705 140.3C39.8697 140.3 40.009 140.357 40.123 140.471C40.2497 140.572 40.313 140.712 40.313 140.889C40.313 140.914 40.313 140.952 40.313 141.003C40.313 141.041 40.3003 141.079 40.275 141.117C40.161 141.459 40.0723 141.788 40.009 142.105C39.9457 142.409 39.914 142.707 39.914 142.998C39.914 143.707 40.0913 144.322 40.446 144.841C40.8133 145.36 41.3643 145.766 42.099 146.057C42.631 146.272 43.2137 146.431 43.847 146.532C44.493 146.646 45.1453 146.703 45.804 146.703C46.5387 146.703 47.2543 146.633 47.951 146.494C48.141 146.469 48.293 146.507 48.407 146.608C48.521 146.709 48.5843 146.823 48.597 146.95C48.635 147.305 48.483 147.52 48.141 147.596ZM63.398 148.337C62.5747 148.337 61.8273 148.166 61.156 147.824C60.4973 147.495 59.9717 147.02 59.579 146.399C59.1863 145.791 58.99 145.069 58.99 144.233C58.99 143.245 59.237 142.396 59.731 141.687C60.2377 140.978 60.909 140.433 61.745 140.053C62.5937 139.66 63.5247 139.464 64.538 139.464C64.6393 139.464 64.747 139.47 64.861 139.483C64.975 139.483 65.089 139.489 65.203 139.502C64.9117 139.046 64.5823 138.584 64.215 138.115C63.8603 137.646 63.531 137.241 63.227 136.899C63.113 136.785 63.056 136.665 63.056 136.538C63.056 136.449 63.075 136.367 63.113 136.291C63.1637 136.215 63.2143 136.152 63.265 136.101C63.3663 136 63.4867 135.949 63.626 135.949C63.778 135.949 63.9173 136.012 64.044 136.139C64.1707 136.278 64.3353 136.475 64.538 136.728C64.7533 136.981 64.956 137.228 65.146 137.469C65.336 137.697 65.4627 137.868 65.526 137.982H69.098C69.3007 137.982 69.44 138.039 69.516 138.153C69.6047 138.267 69.649 138.394 69.649 138.533C69.649 138.698 69.5983 138.831 69.497 138.932C69.4083 139.033 69.2753 139.084 69.098 139.084H66.248L66.647 139.806C67.0017 139.895 67.3753 140.034 67.768 140.224C68.1733 140.414 68.5153 140.598 68.794 140.775C68.9713 140.876 69.06 141.022 69.06 141.212C69.06 141.377 69.003 141.522 68.889 141.649C68.775 141.776 68.6483 141.839 68.509 141.839C68.395 141.839 68.2873 141.801 68.186 141.725C68.0973 141.662 67.9517 141.579 67.749 141.478C67.559 141.364 67.4133 141.288 67.312 141.25C67.6667 142.225 67.844 143.106 67.844 143.891C67.844 144.752 67.6477 145.519 67.255 146.19C66.8623 146.861 66.3303 147.387 65.659 147.767C64.9877 148.147 64.234 148.337 63.398 148.337ZM63.189 147.235C63.8983 147.235 64.519 147.089 65.051 146.798C65.583 146.507 65.9947 146.114 66.286 145.62C66.5773 145.113 66.723 144.537 66.723 143.891C66.723 143.714 66.7103 143.53 66.685 143.34C66.6723 143.137 66.6343 142.935 66.571 142.732C66.419 142.073 66.191 141.421 65.887 140.775C65.6463 140.712 65.4057 140.674 65.165 140.661C64.9243 140.636 64.6837 140.623 64.443 140.623C63.6577 140.623 62.9357 140.769 62.277 141.06C61.6183 141.339 61.0927 141.744 60.7 142.276C60.3073 142.808 60.111 143.454 60.111 144.214C60.111 144.746 60.2377 145.246 60.491 145.715C60.757 146.171 61.118 146.538 61.574 146.817C62.0427 147.096 62.581 147.235 63.189 147.235ZM89.789 134.429L77.591 134.125C77.3883 134.125 77.2427 134.068 77.154 133.954C77.078 133.827 77.04 133.694 77.04 133.555C77.04 133.403 77.0907 133.276 77.192 133.175C77.2933 133.061 77.4327 133.004 77.61 133.004L89.827 133.327C90.0297 133.327 90.169 133.39 90.245 133.517C90.3337 133.631 90.378 133.758 90.378 133.897C90.3527 134.1 90.283 134.239 90.169 134.315C90.055 134.391 89.9283 134.429 89.789 134.429ZM85.267 148.033C85.229 148.058 85.172 148.071 85.096 148.071C84.9567 148.071 84.8237 148.008 84.697 147.881C84.583 147.767 84.526 147.634 84.526 147.482C84.526 147.381 84.5577 147.279 84.621 147.178C84.697 147.077 84.7983 147.007 84.925 146.969C85.6723 146.716 86.3437 146.361 86.939 145.905C87.547 145.449 88.0157 144.923 88.345 144.328C88.7377 143.631 88.934 142.941 88.934 142.257C88.934 141.345 88.5983 140.528 87.927 139.806C87.2683 139.084 86.3753 138.546 85.248 138.191C84.7667 138.039 84.2537 137.931 83.709 137.868C83.177 137.805 82.626 137.773 82.056 137.773C81.3467 137.773 80.6247 137.817 79.89 137.906C79.1553 137.982 78.446 138.09 77.762 138.229C77.5847 138.267 77.439 138.235 77.325 138.134C77.211 138.033 77.1413 137.919 77.116 137.792C77.078 137.64 77.097 137.501 77.173 137.374C77.249 137.235 77.3693 137.152 77.534 137.127C78.2433 136.988 78.959 136.88 79.681 136.804C80.4157 136.715 81.1313 136.671 81.828 136.671C82.5627 136.671 83.2783 136.722 83.975 136.823C84.6843 136.924 85.3493 137.083 85.97 137.298C87.2493 137.729 88.2437 138.394 88.953 139.293C89.675 140.192 90.036 141.18 90.036 142.257C90.036 142.688 89.979 143.118 89.865 143.549C89.751 143.98 89.5673 144.417 89.314 144.86C88.8707 145.62 88.3007 146.26 87.604 146.779C86.9073 147.311 86.1283 147.729 85.267 148.033ZM100.372 147.596C99.46 147.596 98.6367 147.425 97.902 147.083C97.1673 146.741 96.534 146.272 96.002 145.677C95.4827 145.082 95.0837 144.398 94.805 143.625C94.5263 142.84 94.387 142.01 94.387 141.136C94.387 139.971 94.5897 138.926 94.995 138.001C95.4003 137.076 95.964 136.291 96.686 135.645C97.408 134.986 98.2567 134.486 99.232 134.144C100.22 133.789 101.29 133.612 102.443 133.612C103.583 133.612 104.641 133.783 105.616 134.125C106.591 134.454 107.44 134.929 108.162 135.55C108.897 136.158 109.46 136.88 109.853 137.716C110.258 138.552 110.461 139.47 110.461 140.471C110.461 141.117 110.366 141.795 110.176 142.504C110.151 142.631 110.094 142.732 110.005 142.808C109.916 142.871 109.821 142.903 109.72 142.903C109.568 142.903 109.429 142.846 109.302 142.732C109.175 142.605 109.112 142.46 109.112 142.295C109.112 142.219 109.118 142.162 109.131 142.124C109.283 141.554 109.359 141.003 109.359 140.471C109.359 139.61 109.169 138.824 108.789 138.115C108.422 137.393 107.896 136.772 107.212 136.253C106.541 135.721 105.749 135.322 104.837 135.056C105.268 135.981 105.616 136.981 105.882 138.058C106.161 139.135 106.3 140.161 106.3 141.136C106.3 143.277 105.819 144.892 104.856 145.981C103.906 147.058 102.411 147.596 100.372 147.596ZM100.372 146.494C101.955 146.494 103.146 146.082 103.944 145.259C104.755 144.436 105.173 143.277 105.198 141.782C105.198 140.566 105.046 139.344 104.742 138.115C104.451 136.874 104.007 135.759 103.412 134.771C103.057 134.733 102.709 134.714 102.367 134.714C101.138 134.714 100.017 134.948 99.004 135.417C98.0033 135.873 97.1863 136.544 96.553 137.431C95.9323 138.305 95.5713 139.369 95.47 140.623C95.432 141.408 95.5143 142.156 95.717 142.865C95.9323 143.574 96.2553 144.201 96.686 144.746C97.1167 145.291 97.6423 145.715 98.263 146.019C98.8963 146.336 99.5993 146.494 100.372 146.494ZM121.766 148.147C120.778 148.147 119.879 147.913 119.068 147.444C118.257 146.975 117.611 146.342 117.13 145.544C116.649 144.746 116.408 143.853 116.408 142.865C116.408 141.674 116.699 140.686 117.282 139.901C117.865 139.103 118.65 138.508 119.638 138.115C120.639 137.722 121.766 137.526 123.02 137.526C123.413 137.526 123.812 137.545 124.217 137.583C124.622 137.621 125.034 137.672 125.452 137.735C125.414 137.558 125.376 137.399 125.338 137.26C125.3 137.121 125.224 136.912 125.11 136.633H119.239C119.049 136.633 118.91 136.576 118.821 136.462C118.732 136.335 118.688 136.209 118.688 136.082C118.688 135.702 118.872 135.512 119.239 135.512H124.673C124.635 135.411 124.565 135.259 124.464 135.056C124.375 134.841 124.287 134.638 124.198 134.448C124.122 134.245 124.071 134.119 124.046 134.068H119.239C119.036 134.068 118.891 134.011 118.802 133.897C118.726 133.77 118.688 133.637 118.688 133.498C118.688 133.333 118.739 133.2 118.84 133.099C118.941 132.998 119.074 132.947 119.239 132.947H126.155C126.662 132.326 127.301 132.016 128.074 132.016C128.581 132.016 129.018 132.13 129.385 132.358C129.752 132.586 130.037 132.89 130.24 133.27C130.455 133.637 130.563 134.049 130.563 134.505C130.563 134.948 130.449 135.36 130.221 135.74C130.006 136.107 129.708 136.405 129.328 136.633C128.961 136.861 128.543 136.975 128.074 136.975C127.795 136.975 127.536 136.937 127.295 136.861C127.067 136.772 126.858 136.665 126.668 136.538C126.567 136.601 126.465 136.633 126.364 136.633C126.44 136.874 126.51 137.114 126.573 137.355C126.649 137.596 126.712 137.836 126.763 138.077C126.864 138.102 127.004 138.147 127.181 138.21C127.358 138.273 127.536 138.343 127.713 138.419C127.89 138.482 128.023 138.539 128.112 138.59C128.239 138.641 128.321 138.717 128.359 138.818C128.41 138.907 128.435 139.002 128.435 139.103C128.435 139.268 128.384 139.407 128.283 139.521C128.182 139.622 128.061 139.673 127.922 139.673C127.846 139.673 127.757 139.654 127.656 139.616C127.479 139.527 127.346 139.47 127.257 139.445C127.168 139.407 127.08 139.375 126.991 139.35C127.042 139.717 127.08 140.085 127.105 140.452C127.13 140.807 127.143 141.155 127.143 141.497C127.143 142.776 126.934 143.916 126.516 144.917C126.111 145.918 125.509 146.703 124.711 147.273C123.913 147.856 122.931 148.147 121.766 148.147ZM128.074 135.911C128.454 135.911 128.783 135.778 129.062 135.512C129.353 135.233 129.499 134.898 129.499 134.505C129.499 134.074 129.353 133.732 129.062 133.479C128.771 133.213 128.441 133.08 128.074 133.08C127.681 133.08 127.346 133.219 127.067 133.498C126.801 133.777 126.668 134.112 126.668 134.505C126.668 134.885 126.801 135.214 127.067 135.493C127.346 135.772 127.681 135.911 128.074 135.911ZM125.623 134.809C125.61 134.784 125.604 134.714 125.604 134.6C125.604 134.499 125.604 134.391 125.604 134.277C125.617 134.15 125.629 134.081 125.642 134.068H125.281L125.623 134.809ZM114.033 142.884C113.906 142.884 113.792 142.84 113.691 142.751C113.59 142.662 113.526 142.536 113.501 142.371L112.931 136.405C112.918 136.19 112.975 136.038 113.102 135.949C113.229 135.848 113.368 135.797 113.52 135.797C113.659 135.797 113.78 135.841 113.881 135.93C113.982 136.019 114.039 136.139 114.052 136.291L114.622 142.257C114.622 142.675 114.426 142.884 114.033 142.884ZM121.785 146.969C122.76 146.969 123.565 146.728 124.198 146.247C124.844 145.766 125.325 145.126 125.642 144.328C125.959 143.53 126.117 142.656 126.117 141.706C126.117 141.301 126.085 140.876 126.022 140.433C125.959 139.99 125.876 139.515 125.775 139.008C125.306 138.907 124.838 138.831 124.369 138.78C123.9 138.729 123.444 138.704 123.001 138.704C121.962 138.704 121.031 138.862 120.208 139.179C119.385 139.496 118.732 139.971 118.251 140.604C117.782 141.225 117.548 142.01 117.548 142.96C117.548 143.707 117.725 144.385 118.08 144.993C118.447 145.601 118.948 146.082 119.581 146.437C120.214 146.792 120.949 146.969 121.785 146.969ZM143.236 147.596C142.185 147.596 141.26 147.355 140.462 146.874C139.664 146.393 139.037 145.728 138.581 144.879C138.138 144.03 137.916 143.061 137.916 141.972C137.916 141.681 137.935 141.383 137.973 141.079C138.011 140.775 138.062 140.465 138.125 140.148C137.454 140.528 136.833 141.085 136.263 141.82C135.706 142.542 135.218 143.34 134.8 144.214C134.395 145.088 134.078 145.949 133.85 146.798C133.837 146.925 133.78 147.026 133.679 147.102C133.578 147.191 133.464 147.235 133.337 147.235C133.172 147.235 133.027 147.184 132.9 147.083C132.786 146.994 132.729 146.868 132.729 146.703C132.729 146.678 132.729 146.646 132.729 146.608C132.742 146.583 132.754 146.551 132.767 146.513L136.073 133.403C136.111 133.238 136.181 133.131 136.282 133.08C136.383 133.017 136.491 132.985 136.605 132.985C136.82 132.985 136.979 133.067 137.08 133.232C137.181 133.397 137.207 133.549 137.156 133.688L135.218 141.383C135.661 140.724 136.206 140.135 136.852 139.616C137.498 139.097 138.182 138.774 138.904 138.647C139.36 138.647 139.588 138.805 139.588 139.122C139.588 139.211 139.569 139.306 139.531 139.407C139.202 140.294 139.037 141.149 139.037 141.972C139.037 142.808 139.202 143.574 139.531 144.271C139.873 144.955 140.361 145.506 140.994 145.924C141.64 146.329 142.419 146.532 143.331 146.532C144.129 146.532 144.813 146.348 145.383 145.981C145.966 145.601 146.409 145.101 146.713 144.48C147.017 143.847 147.169 143.15 147.169 142.39C147.169 142.086 147.175 141.833 147.188 141.63C147.213 141.415 147.391 141.307 147.72 141.307C147.973 141.307 148.132 141.402 148.195 141.592C148.258 141.769 148.29 141.997 148.29 142.276C148.29 143.327 148.081 144.252 147.663 145.05C147.258 145.848 146.675 146.469 145.915 146.912C145.168 147.368 144.275 147.596 143.236 147.596ZM159.766 148.147C158.778 148.147 157.879 147.913 157.068 147.444C156.257 146.975 155.611 146.342 155.13 145.544C154.649 144.746 154.408 143.853 154.408 142.865C154.408 141.674 154.699 140.686 155.282 139.901C155.865 139.103 156.65 138.508 157.638 138.115C158.639 137.722 159.766 137.526 161.02 137.526C161.413 137.526 161.812 137.545 162.217 137.583C162.622 137.621 163.034 137.672 163.452 137.735C163.414 137.558 163.376 137.399 163.338 137.26C163.3 137.121 163.224 136.912 163.11 136.633H157.239C157.049 136.633 156.91 136.576 156.821 136.462C156.732 136.335 156.688 136.209 156.688 136.082C156.688 135.702 156.872 135.512 157.239 135.512H162.673C162.635 135.411 162.565 135.259 162.464 135.056C162.375 134.841 162.287 134.638 162.198 134.448C162.122 134.245 162.071 134.119 162.046 134.068H157.239C157.036 134.068 156.891 134.011 156.802 133.897C156.726 133.77 156.688 133.637 156.688 133.498C156.688 133.333 156.739 133.2 156.84 133.099C156.941 132.998 157.074 132.947 157.239 132.947H164.155C164.662 132.326 165.301 132.016 166.074 132.016C166.581 132.016 167.018 132.13 167.385 132.358C167.752 132.586 168.037 132.89 168.24 133.27C168.455 133.637 168.563 134.049 168.563 134.505C168.563 134.948 168.449 135.36 168.221 135.74C168.006 136.107 167.708 136.405 167.328 136.633C166.961 136.861 166.543 136.975 166.074 136.975C165.795 136.975 165.536 136.937 165.295 136.861C165.067 136.772 164.858 136.665 164.668 136.538C164.567 136.601 164.465 136.633 164.364 136.633C164.44 136.874 164.51 137.114 164.573 137.355C164.649 137.596 164.712 137.836 164.763 138.077C164.864 138.102 165.004 138.147 165.181 138.21C165.358 138.273 165.536 138.343 165.713 138.419C165.89 138.482 166.023 138.539 166.112 138.59C166.239 138.641 166.321 138.717 166.359 138.818C166.41 138.907 166.435 139.002 166.435 139.103C166.435 139.268 166.384 139.407 166.283 139.521C166.182 139.622 166.061 139.673 165.922 139.673C165.846 139.673 165.757 139.654 165.656 139.616C165.479 139.527 165.346 139.47 165.257 139.445C165.168 139.407 165.08 139.375 164.991 139.35C165.042 139.717 165.08 140.085 165.105 140.452C165.13 140.807 165.143 141.155 165.143 141.497C165.143 142.776 164.934 143.916 164.516 144.917C164.111 145.918 163.509 146.703 162.711 147.273C161.913 147.856 160.931 148.147 159.766 148.147ZM166.074 135.911C166.454 135.911 166.783 135.778 167.062 135.512C167.353 135.233 167.499 134.898 167.499 134.505C167.499 134.074 167.353 133.732 167.062 133.479C166.771 133.213 166.441 133.08 166.074 133.08C165.681 133.08 165.346 133.219 165.067 133.498C164.801 133.777 164.668 134.112 164.668 134.505C164.668 134.885 164.801 135.214 165.067 135.493C165.346 135.772 165.681 135.911 166.074 135.911ZM163.623 134.809C163.61 134.784 163.604 134.714 163.604 134.6C163.604 134.499 163.604 134.391 163.604 134.277C163.617 134.15 163.629 134.081 163.642 134.068H163.281L163.623 134.809ZM152.033 142.884C151.906 142.884 151.792 142.84 151.691 142.751C151.59 142.662 151.526 142.536 151.501 142.371L150.931 136.405C150.918 136.19 150.975 136.038 151.102 135.949C151.229 135.848 151.368 135.797 151.52 135.797C151.659 135.797 151.78 135.841 151.881 135.93C151.982 136.019 152.039 136.139 152.052 136.291L152.622 142.257C152.622 142.675 152.426 142.884 152.033 142.884ZM159.785 146.969C160.76 146.969 161.565 146.728 162.198 146.247C162.844 145.766 163.325 145.126 163.642 144.328C163.959 143.53 164.117 142.656 164.117 141.706C164.117 141.301 164.085 140.876 164.022 140.433C163.959 139.99 163.876 139.515 163.775 139.008C163.306 138.907 162.838 138.831 162.369 138.78C161.9 138.729 161.444 138.704 161.001 138.704C159.962 138.704 159.031 138.862 158.208 139.179C157.385 139.496 156.732 139.971 156.251 140.604C155.782 141.225 155.548 142.01 155.548 142.96C155.548 143.707 155.725 144.385 156.08 144.993C156.447 145.601 156.948 146.082 157.581 146.437C158.214 146.792 158.949 146.969 159.785 146.969ZM184.162 137.165C184.035 137.165 183.921 137.127 183.82 137.051C183.719 136.975 183.649 136.855 183.611 136.69C183.535 136.247 183.313 135.86 182.946 135.531C182.579 135.202 182.11 134.923 181.54 134.695C180.983 134.454 180.368 134.277 179.697 134.163C179.026 134.049 178.348 133.992 177.664 133.992C176.815 133.992 176.011 134.087 175.251 134.277C174.504 134.454 173.921 134.733 173.503 135.113C173.402 135.214 173.275 135.265 173.123 135.265C172.958 135.265 172.825 135.195 172.724 135.056C172.623 134.955 172.572 134.828 172.572 134.676C172.572 134.499 172.635 134.366 172.762 134.277C173.307 133.796 174.01 133.441 174.871 133.213C175.745 132.972 176.663 132.852 177.626 132.852C178.449 132.852 179.266 132.934 180.077 133.099C180.888 133.264 181.629 133.504 182.3 133.821C182.984 134.125 183.541 134.505 183.972 134.961C184.403 135.417 184.656 135.936 184.732 136.519C184.757 136.747 184.7 136.912 184.561 137.013C184.434 137.114 184.301 137.165 184.162 137.165ZM178.766 148.204C177.791 148.204 176.834 148.071 175.897 147.805C174.972 147.539 174.168 147.146 173.484 146.627C172.8 146.12 172.331 145.487 172.078 144.727C172.053 144.626 172.04 144.556 172.04 144.518C172.04 144.341 172.103 144.208 172.23 144.119C172.357 144.03 172.496 143.986 172.648 143.986C172.889 143.986 173.053 144.113 173.142 144.366C173.345 144.949 173.731 145.443 174.301 145.848C174.871 146.241 175.549 146.532 176.334 146.722C177.132 146.925 177.943 147.026 178.766 147.026C179.716 147.026 180.615 146.893 181.464 146.627C182.313 146.374 182.971 145.994 183.44 145.487C183.541 145.348 183.674 145.278 183.839 145.278C183.991 145.278 184.118 145.329 184.219 145.43C184.358 145.544 184.428 145.683 184.428 145.848C184.428 145.987 184.377 146.108 184.276 146.209C183.693 146.88 182.902 147.381 181.901 147.71C180.9 148.039 179.855 148.204 178.766 148.204Z" fill="black"/>
<path fill-rule="evenodd" clip-rule="evenodd" d="M55.1543 4.48156C54.7085 2.25551 56.8111 0.363886 58.9865 1.03382L86.2584 9.43215C86.8975 9.62897 87.4052 10.0035 87.7633 10.4742C94.6456 7.41733 102.221 5.68151 110.139 5.68151C118.698 5.68151 126.831 7.70971 134.109 11.2423L159.388 1.48322C161.511 0.663642 163.74 2.4035 163.451 4.65489L159.829 32.8816C159.746 33.5328 159.47 34.0884 159.077 34.5182C163.485 42.2102 166 50.856 166 59.6957C166 87.674 140.804 107 110.139 107C79.4741 107 53.942 87.674 53.942 59.6957C53.942 50.5594 56.6646 41.6303 61.3994 33.7473C61.0829 33.3778 60.8499 32.9198 60.7433 32.3875L55.1543 4.48156Z" fill="#927051"/>
<path d="M55.0378 4.27155C54.592 2.04551 56.6945 0.153881 58.87 0.823813L86.1419 9.22214C88.3693 9.90808 88.9995 12.7516 87.2692 14.3084L65.5863 33.816C63.8559 35.3728 61.0832 34.4567 60.6267 32.1775L55.0378 4.27155Z" fill="black"/>
<ellipse cx="86.6223" cy="59.8358" rx="9.7588" ry="9.39377" fill="#FFE03F"/>
<ellipse cx="133.061" cy="59.8358" rx="9.7588" ry="9.39377" fill="#FFE03F"/>
<ellipse cx="88.9779" cy="59.8358" rx="7.40323" ry="7.38082" fill="black"/>
<ellipse cx="130.705" cy="59.8358" rx="7.40323" ry="7.38082" fill="black"/>
<ellipse cx="109.143" cy="74.4537" rx="4.37464" ry="3.01942" fill="black"/>
<line opacity="0.9" x1="109.744" y1="69.6055" x2="109.744" y2="5.85857" stroke="black" stroke-width="4"/>
<path fill-rule="evenodd" clip-rule="evenodd" d="M97.9227 105.308C97.198 103.809 96.7953 102.149 96.7953 100.403C96.7953 93.7324 102.671 88.325 109.919 88.325C117.167 88.325 123.043 93.7324 123.043 100.403C123.043 102.247 122.594 103.994 121.791 105.557C118.169 106.14 114.423 106.442 110.592 106.442C106.247 106.442 102.004 106.053 97.9227 105.308Z" fill="black"/>
<path fill-rule="evenodd" clip-rule="evenodd" d="M71.3186 44.8571C83.3988 44.8571 93.1918 35.3942 93.1918 23.7211C93.1918 18.8668 91.4983 14.3947 88.6509 10.8264C74.904 16.514 63.7653 27.4439 57.9283 40.435C61.6286 43.207 66.2742 44.8571 71.3186 44.8571Z" fill="black"/>
<path d="M71.2585 70.625C69.0569 70.625 66.8844 70.968 64.7201 70.968" stroke="#523E2C" stroke-width="4" stroke-linecap="round"/>
<path d="M72.6351 76.1144C70.6191 76.1144 69.3285 76.5271 67.4731 77.1436" stroke="#523E2C" stroke-width="4" stroke-linecap="round"/>
<path d="M145.934 68.5664C148.03 68.5664 150.046 68.2234 152.129 68.2234" stroke="#523E2C" stroke-width="4" stroke-linecap="round"/>
<path d="M144.214 75.4282C146.454 75.4282 148.264 75.5799 150.408 76.1143" stroke="#523E2C" stroke-width="4" stroke-linecap="round"/>
<path d="M108.865 72.5484C108.862 72.5717 108.824 72.6004 108.811 72.6205" stroke="black" stroke-linecap="round"/>
<path d="M108.254 72.262C108.254 72.3127 108.254 72.3634 108.254 72.4142C108.254 72.4622 108.377 72.441 108.416 72.441C108.517 72.441 108.385 72.441 108.353 72.441C108.293 72.441 108.234 72.441 108.174 72.441C108.15 72.441 108.126 72.441 108.102 72.441C108.078 72.441 108.029 72.4652 108.029 72.441C108.029 72.408 108.239 72.4052 108.276 72.4052C108.431 72.4052 108.586 72.4052 108.74 72.4052C109.033 72.4052 109.326 72.4052 109.619 72.4052C109.734 72.4052 109.831 72.4284 109.934 72.4579C109.971 72.4683 110.053 72.4577 110.082 72.4808C110.106 72.4997 110.187 72.5557 110.122 72.5126" stroke="black" stroke-linecap="round"/>
<path d="M107.913 72.2262V72.3523" stroke="black" stroke-linecap="round"/>
<path d="M110.284 72.1904V72.2092" stroke="black" stroke-linecap="round"/>
<line y1="-0.5" x2="9.50356" y2="-0.5" transform="matrix(-0.708178 0.706034 -0.708178 -0.706034 109.363 75.8989)" stroke="black"/>
<line y1="-0.5" x2="9.50356" y2="-0.5" transform="matrix(-0.708178 -0.706034 -0.708178 0.706034 114.747 83.2797)" stroke="black"/>
<path fill-rule="evenodd" clip-rule="evenodd" d="M104.696 5.85056C104.747 5.9704 104.775 6.10219 104.775 6.24055V45.595C104.775 46.1473 104.327 46.595 103.775 46.595C103.223 46.595 102.775 46.1473 102.775 45.595V6.24055C102.775 6.22986 102.775 6.2192 102.775 6.20859C103.412 6.076 104.053 5.95656 104.696 5.85056Z" fill="#523E2C"/>
<path fill-rule="evenodd" clip-rule="evenodd" d="M114.806 5.85781C114.755 5.97765 114.727 6.10944 114.727 6.2478V45.6022C114.727 46.1545 115.175 46.6022 115.727 46.6022C116.279 46.6022 116.727 46.1545 116.727 45.6022V6.2478C116.727 6.2371 116.727 6.22645 116.727 6.21584C116.09 6.08325 115.449 5.96381 114.806 5.85781Z" fill="#523E2C"/>
</g>
<defs>
<clipPath id="clip0_2_7">
<rect width="220" height="152" fill="white"/>
</clipPath>
</defs>
</svg>
