<svg width="88" height="71" viewBox="0 0 88 71" fill="none" xmlns="http://www.w3.org/2000/svg">
<path d="M72.0947 51.7202C73.6068 56.1642 69.9415 57.206 65.4973 58.7182C61.0531 60.2304 57.513 61.6403 56.0009 57.1964C54.4888 52.7525 56.8657 47.9241 61.3099 46.4119C65.754 44.8997 70.5826 47.2763 72.0947 51.7202Z" fill="#523E2C" fill-opacity="0.27"/>
<ellipse cx="51.9284" cy="50.6603" rx="3" ry="2.99983" transform="rotate(-18.7917 51.9284 50.6603)" fill="#523E2C" fill-opacity="0.27"/>
<ellipse cx="63.5716" cy="41.4173" rx="3" ry="2.99983" transform="rotate(-18.7917 63.5716 41.4173)" fill="#523E2C" fill-opacity="0.27"/>
<ellipse cx="70.8622" cy="44.2177" rx="3" ry="2.99983" transform="rotate(-18.7917 70.8622 44.2177)" fill="#523E2C" fill-opacity="0.27"/>
<ellipse cx="56.4713" cy="43.8332" rx="3" ry="2.99983" transform="rotate(-18.7917 56.4713 43.8332)" fill="#523E2C" fill-opacity="0.27"/>
<path d="M36.0923 23.7795C37.6044 28.2234 33.939 29.2652 29.4948 30.7775C25.0507 32.2897 21.5106 33.6996 19.9984 29.2557C18.4863 24.8117 20.8632 19.9833 25.3074 18.4711C29.7516 16.9589 34.5801 19.3355 36.0923 23.7795Z" fill="#523E2C" fill-opacity="0.27"/>
<ellipse cx="15.9259" cy="22.7196" rx="3" ry="2.99983" transform="rotate(-18.7917 15.9259 22.7196)" fill="#523E2C" fill-opacity="0.27"/>
<ellipse cx="27.5691" cy="13.4765" rx="3" ry="2.99983" transform="rotate(-18.7917 27.5691 13.4765)" fill="#523E2C" fill-opacity="0.27"/>
<ellipse cx="34.8598" cy="16.2769" rx="3" ry="2.99983" transform="rotate(-18.7917 34.8598 16.2769)" fill="#523E2C" fill-opacity="0.27"/>
<ellipse cx="20.4689" cy="15.8924" rx="3" ry="2.99983" transform="rotate(-18.7917 20.4689 15.8924)" fill="#523E2C" fill-opacity="0.27"/>
</svg>
